<svg xmlns="http://www.w3.org/2000/svg" xmlns:xlink="http://www.w3.org/1999/xlink" xmlns:lucid="lucid" width="724" height="642.67"><g transform="translate(0 0)" lucid:page-tab-id="33JCS0bzSEnt"><path d="M260 26c0-3.3 2.7-6 6-6h188c3.3 0 6 2.7 6 6v71.6c0 3.3-2.7 6-6 6H266c-3.3 0-6-2.7-6-6z" fill="#fff"/><use xlink:href="#a" transform="matrix(1,0,0,1,272,32) translate(54.080000000000005 37.55)"/><path d="M260 146c0-3.3 2.7-6 6-6h188c3.3 0 6 2.7 6 6v71.6c0 3.3-2.7 6-6 6H266c-3.3 0-6-2.7-6-6z" fill="#fff"/><use xlink:href="#b" transform="matrix(1,0,0,1,272,152) translate(39.91000000000001 37.55)"/><path d="M260 266c0-3.3 2.7-6 6-6h188c3.3 0 6 2.7 6 6v71.6c0 3.3-2.7 6-6 6H266c-3.3 0-6-2.7-6-6z" fill="#fff"/><use xlink:href="#c" transform="matrix(1,0,0,1,272,272.00000000000006) translate(17.5 37.55)"/><path d="M20 386c0-3.3 2.7-6 6-6h188c3.3 0 6 2.7 6 6v71.6c0 3.3-2.7 6-6 6H26c-3.3 0-6-2.7-6-6z" fill="#fff"/><use xlink:href="#d" transform="matrix(1,0,0,1,32,392.0000000000001) translate(6.590000000000018 37.55)"/><path d="M500 386c0-3.3 2.7-6 6-6h188c3.3 0 6 2.7 6 6v71.6c0 3.3-2.7 6-6 6H506c-3.3 0-6-2.7-6-6z" fill="#fff"/><use xlink:href="#e" transform="matrix(1,0,0,1,512,392.0000000000001) translate(17.38000000000001 37.55)"/><path d="M260 546c0-3.3 2.7-6 6-6h188c3.3 0 6 2.7 6 6v71.6c0 3.3-2.7 6-6 6H266c-3.3 0-6-2.7-6-6z" fill="#fff"/><use xlink:href="#f" transform="matrix(1,0,0,1,272,552) translate(37.650000000000006 37.55)"/><path d="M20 546c0-3.3 2.7-6 6-6h188c3.3 0 6 2.7 6 6v71.6c0 3.3-2.7 6-6 6H26c-3.3 0-6-2.7-6-6z" fill="#fff"/><use xlink:href="#f" transform="matrix(1,0,0,1,32,552) translate(37.650000000000006 37.55)"/><path d="M500 546c0-3.3 2.7-6 6-6h188c3.3 0 6 2.7 6 6v71.6c0 3.3-2.7 6-6 6H506c-3.3 0-6-2.7-6-6z" fill="#fff"/><use xlink:href="#f" transform="matrix(1,0,0,1,512,552) translate(37.650000000000006 37.55)"/><path d="M360 106.1v31.4" stroke="#f2f2f2" stroke-width="5" fill="none"/><path d="M362.5 106.15h-5v-2.56h5zM362.5 140h-5v-2.56h5z" fill="#f2f2f2"/><path d="M360 225.6V258" stroke="#f2f2f2" stroke-width="4" fill="none"/><path d="M362 225.64h-4v-2.05h4zM362 260h-4v-2.05h4z" fill="#f2f2f2"/><path d="M360 345.6V538" stroke="#f2f2f2" stroke-width="4" fill="none"/><path d="M362 345.64h-4v-2.05h4zM362 540h-4v-2.05h4z" fill="#f2f2f2"/><path d="M222 421.8h276" stroke="#f2f2f2" stroke-width="4" fill="none"/><path d="M222.05 423.8H220v-4h2.05zM500 423.8h-2.05v-4H500z" fill="#f2f2f2"/><path d="M360 538v-32c0-3.3-2.7-6-6-6H125.33c-3.3 0-6 2.7-6 6v32" stroke="#f2f2f2" stroke-width="4" fill="none"/><path d="M362 540h-4v-2.05h4zM121.33 540h-4v-2.05h4z" fill="#f2f2f2"/><path d="M360 538v-32c0-3.3 2.7-6 6-6h231.33c3.32 0 6 2.7 6 6v32" stroke="#f2f2f2" stroke-width="4" fill="none"/><path d="M362 540h-4v-2.05h4zM605.33 540h-4v-2.05h4z" fill="#f2f2f2"/><defs><path fill="#333" d="M601-474c0 137-83 236-221 236H212V0H74v-710h301c138 10 226 100 226 236zm-140 0c-3-66-32-115-95-115H212v230h160c56-1 91-53 89-115" id="g"/><path fill="#333" d="M184-412c38-63 88-124 189-118v122c-82 2-152 32-178 91V0H61v-524h123v112" id="h"/><path fill="#333" d="M577-261C577-95 473 10 303 10S28-94 28-261s105-272 275-272 274 105 274 272zM303-419c-89 0-137 66-137 158s48 157 137 157c90 0 137-66 137-158 0-91-48-157-137-157" id="i"/><path fill="#333" d="M200 4c0 139-113 221-254 180-23-7-43-19-61-35l58-91C-19 99 66 79 66 14v-538h134V4zM66-597v-133h134v133H66" id="j"/><path fill="#333" d="M548-127C511-49 421 14 304 10 135 5 28-93 28-259c0-170 106-274 277-274 182 0 285 122 270 314H170c10 78 56 128 139 131 54 2 110-31 124-71zM440-306c3-111-148-173-229-94-23 21-40 54-43 94h272" id="k"/><path fill="#333" d="M419 0L267-227l-72 71V0H61v-730h134v443l210-236h143L353-301 562 0H419" id="l"/><path fill="#333" d="M225-165c-5 70 87 52 123 32l27 106c-37 15-93 38-148 36C142 8 91-34 91-120v-301H22v-103h69v-170h134v170h110v103H225v256" id="m"/><g id="a"><use transform="matrix(0.019999999999999997,0,0,0.019999999999999997,0,0)" xlink:href="#g"/><use transform="matrix(0.019999999999999997,0,0,0.019999999999999997,12.459999999999997,0)" xlink:href="#h"/><use transform="matrix(0.019999999999999997,0,0,0.019999999999999997,19.679999999999996,0)" xlink:href="#i"/><use transform="matrix(0.019999999999999997,0,0,0.019999999999999997,31.799999999999994,0)" xlink:href="#j"/><use transform="matrix(0.019999999999999997,0,0,0.019999999999999997,37.019999999999996,0)" xlink:href="#k"/><use transform="matrix(0.019999999999999997,0,0,0.019999999999999997,48.99999999999999,0)" xlink:href="#l"/><use transform="matrix(0.019999999999999997,0,0,0.019999999999999997,60.15999999999999,0)" xlink:href="#m"/></g><path fill="#333" d="M51-492c2-152 107-219 259-223 101-3 187 39 248 79l-61 112c-45-36-111-65-191-70-81-5-135 47-102 116 73 72 242 65 318 135 36 33 61 72 61 140C583 72 170 38 22-84l61-119c57 44 138 80 239 87 123 9 148-101 64-140-127-61-338-50-335-236" id="n"/><path fill="#333" d="M318 104c-24 88-132 152-246 114V102c34 10 86 19 104-12 15-25 26-54 37-90L6-524h138l142 408 126-408h126" id="o"/><path fill="#333" d="M440-91C410-37 345 3 266 3 114 3 30-108 30-262c0-159 86-271 244-271 88 0 146 45 183 101v-92h117v499c-8 168-120 245-291 248-120 2-190-43-245-109l73-71c35 44 97 79 172 79 96 0 155-49 157-147v-66zM167-258c0 91 54 154 144 154 67 0 107-40 129-88v-125c-19-52-73-102-137-102-89 0-136 70-136 161" id="p"/><path fill="#333" d="M432-98C391-33 319 10 221 10 104 10 55-71 56-196v-328h134v299c0 81 29 121 87 121 66 0 111-42 135-95v-325h134v370c0 27 8 38 32 40V0c-63 16-138 3-143-56" id="q"/><path fill="#333" d="M604-263c0 155-78 267-229 273-87 4-148-44-180-102v305H61v-737h117v90c35-56 94-99 181-99 156 0 245 113 245 270zm-409 55c19 51 70 104 135 104 89 0 137-69 137-159 0-93-54-156-145-156-65 0-106 40-127 88v123" id="r"/><g id="b"><use transform="matrix(0.019999999999999997,0,0,0.019999999999999997,0,0)" xlink:href="#n"/><use transform="matrix(0.019999999999999997,0,0,0.019999999999999997,12.139999999999999,0)" xlink:href="#m"/><use transform="matrix(0.019999999999999997,0,0,0.019999999999999997,19.819999999999997,0)" xlink:href="#o"/><use transform="matrix(0.019999999999999997,0,0,0.019999999999999997,30.819999999999997,0)" xlink:href="#h"/><use transform="matrix(0.019999999999999997,0,0,0.019999999999999997,38.03999999999999,0)" xlink:href="#p"/><use transform="matrix(0.019999999999999997,0,0,0.019999999999999997,50.71999999999999,0)" xlink:href="#h"/><use transform="matrix(0.019999999999999997,0,0,0.019999999999999997,58.459999999999994,0)" xlink:href="#q"/><use transform="matrix(0.019999999999999997,0,0,0.019999999999999997,70.82,0)" xlink:href="#r"/><use transform="matrix(0.019999999999999997,0,0,0.019999999999999997,83.49999999999999,0)" xlink:href="#r"/></g><path fill="#333" d="M192 8C109 9 59-38 60-121v-609h134v562c-7 64 65 73 108 47l18 102C290-3 235 8 192 8" id="s"/><path fill="#333" d="M460-91C428-32 361 10 278 10 119 10 29-102 29-262c0-156 81-264 234-271 82-4 146 46 177 101v-298h134v576c0 27 7 38 31 40V0c-81 22-152-5-145-91zM168-259c0 92 53 155 145 155 65 0 106-40 127-88v-125c-23-54-65-102-135-102-89 0-137 70-137 160" id="t"/><path fill="#333" d="M390-533c121 0 157 87 158 206V0H414v-294c0-72-21-121-83-121-72 0-115 51-136 109V0H61v-524h121v97c35-63 112-106 208-106" id="u"/><path fill="#333" d="M61 0v-524h134V0H61zm0-597v-133h134v133H61" id="v"/><g id="c"><use transform="matrix(0.019999999999999997,0,0,0.019999999999999997,0,0)" xlink:href="#g"/><use transform="matrix(0.019999999999999997,0,0,0.019999999999999997,12.459999999999997,0)" xlink:href="#h"/><use transform="matrix(0.019999999999999997,0,0,0.019999999999999997,19.679999999999996,0)" xlink:href="#i"/><use transform="matrix(0.019999999999999997,0,0,0.019999999999999997,31.799999999999994,0)" xlink:href="#j"/><use transform="matrix(0.019999999999999997,0,0,0.019999999999999997,37.019999999999996,0)" xlink:href="#k"/><use transform="matrix(0.019999999999999997,0,0,0.019999999999999997,48.99999999999999,0)" xlink:href="#l"/><use transform="matrix(0.019999999999999997,0,0,0.019999999999999997,60.15999999999999,0)" xlink:href="#m"/><use transform="matrix(0.019999999999999997,0,0,0.019999999999999997,67.83999999999999,0)" xlink:href="#s"/><use transform="matrix(0.019999999999999997,0,0,0.019999999999999997,74.17999999999999,0)" xlink:href="#k"/><use transform="matrix(0.019999999999999997,0,0,0.019999999999999997,86.16000000000001,0)" xlink:href="#t"/><use transform="matrix(0.019999999999999997,0,0,0.019999999999999997,99.06,0)" xlink:href="#u"/><use transform="matrix(0.019999999999999997,0,0,0.019999999999999997,111.14,0)" xlink:href="#v"/><use transform="matrix(0.019999999999999997,0,0,0.019999999999999997,116.24,0)" xlink:href="#u"/><use transform="matrix(0.019999999999999997,0,0,0.019999999999999997,128.32,0)" xlink:href="#p"/></g><path fill="#333" d="M614-474c5 97-56 179-128 207L648 0H493L348-238H212V0H74v-710h314c138 10 219 100 226 236zm-139 0c0-65-35-115-96-115H212v230h173c60-5 90-52 90-115" id="w"/><path fill="#333" d="M370-608c-17-9-48-18-73-19-59-3-75 58-70 131h128v102H227V0H93v-394H24v-102h69c-10-139 50-243 175-244 43 0 86 10 129 31" id="x"/><path fill="#333" d="M460-212C532-31 307 54 130-11 88-26 52-45 22-71l50-84c54 37 106 67 184 69 47 1 85-16 86-58 0-19-9-32-27-41-91-50-275-37-275-176 0-201 301-213 411-101l-54 81c-45-33-87-51-152-58-62-6-114 66-57 98 87 48 237 41 272 129" id="y"/><g id="d"><use transform="matrix(0.019999999999999997,0,0,0.019999999999999997,0,0)" xlink:href="#w"/><use transform="matrix(0.019999999999999997,0,0,0.019999999999999997,12.999999999999996,0)" xlink:href="#k"/><use transform="matrix(0.019999999999999997,0,0,0.019999999999999997,24.879999999999995,0)" xlink:href="#x"/><use transform="matrix(0.019999999999999997,0,0,0.019999999999999997,31.759999999999994,0)" xlink:href="#k"/><use transform="matrix(0.019999999999999997,0,0,0.019999999999999997,43.739999999999995,0)" xlink:href="#h"/><use transform="matrix(0.019999999999999997,0,0,0.019999999999999997,50.959999999999994,0)" xlink:href="#k"/><use transform="matrix(0.019999999999999997,0,0,0.019999999999999997,62.93999999999999,0)" xlink:href="#u"/><use transform="matrix(0.019999999999999997,0,0,0.019999999999999997,75.01999999999998,0)" xlink:href="#y"/><use transform="matrix(0.019999999999999997,0,0,0.019999999999999997,84.96,0)" xlink:href="#p"/><use transform="matrix(0.019999999999999997,0,0,0.019999999999999997,97.63999999999997,0)" xlink:href="#h"/><use transform="matrix(0.019999999999999997,0,0,0.019999999999999997,105.37999999999997,0)" xlink:href="#q"/><use transform="matrix(0.019999999999999997,0,0,0.019999999999999997,117.73999999999997,0)" xlink:href="#r"/><use transform="matrix(0.019999999999999997,0,0,0.019999999999999997,130.41999999999996,0)" xlink:href="#r"/><use transform="matrix(0.019999999999999997,0,0,0.019999999999999997,143.09999999999997,0)" xlink:href="#k"/><use transform="matrix(0.019999999999999997,0,0,0.019999999999999997,155.07999999999996,0)" xlink:href="#h"/></g><path fill="#333" d="M276-710h122L668 0H526l-66-177H212L147 0H5zm159 436l-98-279-102 279h200" id="z"/><path fill="#333" d="M604-260c0 159-90 270-245 270-86 0-149-44-181-101V0H61v-730h134v298c34-59 92-101 180-101 151 0 229 118 229 273zm-409 68c20 50 62 88 127 88 92 0 145-63 145-155 0-91-48-160-137-160-67 0-113 53-135 102v125" id="A"/><g id="e"><use transform="matrix(0.019999999999999997,0,0,0.019999999999999997,0,0)" xlink:href="#z"/><use transform="matrix(0.019999999999999997,0,0,0.019999999999999997,13.439999999999998,0)" xlink:href="#h"/><use transform="matrix(0.019999999999999997,0,0,0.019999999999999997,21.179999999999996,0)" xlink:href="#A"/><use transform="matrix(0.019999999999999997,0,0,0.019999999999999997,33.85999999999999,0)" xlink:href="#k"/><use transform="matrix(0.019999999999999997,0,0,0.019999999999999997,45.75999999999999,0)" xlink:href="#m"/><use transform="matrix(0.019999999999999997,0,0,0.019999999999999997,53.43999999999999,0)" xlink:href="#y"/><use transform="matrix(0.019999999999999997,0,0,0.019999999999999997,63.37999999999999,0)" xlink:href="#p"/><use transform="matrix(0.019999999999999997,0,0,0.019999999999999997,76.05999999999999,0)" xlink:href="#h"/><use transform="matrix(0.019999999999999997,0,0,0.019999999999999997,83.79999999999998,0)" xlink:href="#q"/><use transform="matrix(0.019999999999999997,0,0,0.019999999999999997,96.15999999999998,0)" xlink:href="#r"/><use transform="matrix(0.019999999999999997,0,0,0.019999999999999997,108.83999999999999,0)" xlink:href="#r"/><use transform="matrix(0.019999999999999997,0,0,0.019999999999999997,121.51999999999997,0)" xlink:href="#k"/><use transform="matrix(0.019999999999999997,0,0,0.019999999999999997,133.49999999999997,0)" xlink:href="#h"/></g><path fill="#333" d="M682-356C682-132 555 0 332 0H74v-710h258c224 6 350 133 350 354zM332-121c141-5 211-94 211-235s-70-229-211-233H212v468h120" id="B"/><g id="f"><use transform="matrix(0.019999999999999997,0,0,0.019999999999999997,0,0)" xlink:href="#B"/><use transform="matrix(0.019999999999999997,0,0,0.019999999999999997,14.319999999999999,0)" xlink:href="#k"/><use transform="matrix(0.019999999999999997,0,0,0.019999999999999997,26.299999999999997,0)" xlink:href="#s"/><use transform="matrix(0.019999999999999997,0,0,0.019999999999999997,32.63999999999999,0)" xlink:href="#r"/><use transform="matrix(0.019999999999999997,0,0,0.019999999999999997,45.31999999999999,0)" xlink:href="#h"/><use transform="matrix(0.019999999999999997,0,0,0.019999999999999997,52.53999999999999,0)" xlink:href="#i"/><use transform="matrix(0.019999999999999997,0,0,0.019999999999999997,64.66,0)" xlink:href="#j"/><use transform="matrix(0.019999999999999997,0,0,0.019999999999999997,69.88,0)" xlink:href="#k"/><use transform="matrix(0.019999999999999997,0,0,0.019999999999999997,81.86,0)" xlink:href="#l"/><use transform="matrix(0.019999999999999997,0,0,0.019999999999999997,93.02000000000001,0)" xlink:href="#m"/></g></defs></g></svg>