<svg xmlns="http://www.w3.org/2000/svg" viewBox="0 0 828.89 536.21"><defs><style>.cls-1{fill:#f2f2f2;}.cls-2{fill:#3f3d56;}.cls-3{fill:#ffb8b8;}.cls-4{fill:#2f2e41;}.cls-5{fill:#72c472;}.cls-6{fill:#a0616a;}.cls-7{fill:#ccc;}.cls-8{fill:#fff;}.cls-9{fill:none;}</style></defs><g id="Lager_2" data-name="Lager 2"><g id="bf042621-51ff-4860-a13c-709397cb72f6"><circle class="cls-1" cx="401.14" cy="89.57" r="6.47"/><circle class="cls-1" cx="401.14" cy="115.34" r="6.47"/><circle class="cls-1" cx="428.14" cy="89.57" r="6.47"/><circle class="cls-1" cx="428.14" cy="115.34" r="6.47"/><circle class="cls-1" cx="455.14" cy="89.57" r="6.47"/><circle class="cls-1" cx="455.14" cy="115.34" r="6.47"/><circle class="cls-1" cx="455.14" cy="141.12" r="6.47"/><circle class="cls-1" cx="455.14" cy="166.89" r="6.47"/><circle class="cls-1" cx="482.14" cy="89.57" r="6.47"/><circle class="cls-1" cx="482.14" cy="115.34" r="6.47"/><circle class="cls-1" cx="482.14" cy="141.12" r="6.47"/><circle class="cls-1" cx="482.14" cy="166.89" r="6.47"/><circle class="cls-1" cx="509.14" cy="89.57" r="6.47" transform="translate(334.33 576.08) rotate(-80.21)"/><circle class="cls-1" cx="509.14" cy="115.34" r="6.47" transform="translate(312.19 598.81) rotate(-80.6)"/><circle class="cls-1" cx="536.14" cy="89.57" r="6.47"/><circle class="cls-1" cx="536.14" cy="115.34" r="6.47"/><path class="cls-2" d="M733.56,424.36h-48c0,1.38-49.48,2.5-49.48,2.5a13.77,13.77,0,0,0-2.11,2,12.5,12.5,0,0,0-2.9,8v2a12.51,12.51,0,0,0,12.5,12.5h90a12.5,12.5,0,0,0,12.5-12.5v-2A12.52,12.52,0,0,0,733.56,424.36Z"/><rect class="cls-2" x="682.56" y="450.86" width="13" height="84"/><path class="cls-2" d="M732.56,534.41c0,1.4-19.7.54-44,.54s-44,.86-44-.54,19.7-12.55,44-12.55S732.56,533,732.56,534.41Z"/><polygon class="cls-3" points="623.55 523.36 611.29 523.36 605.46 476.07 623.55 476.07 623.55 523.36"/><path class="cls-4" d="M602.53,519.86h23.65v14.88H587.65a14.88,14.88,0,0,1,14.88-14.88Z"/><polygon class="cls-3" points="604.41 516.52 592.72 512.85 601.31 465.98 618.57 471.4 604.41 516.52"/><path class="cls-4" d="M585.41,506.88,608,514h0l-4.46,14.2h0l-36.76-11.53h0A14.88,14.88,0,0,1,585.41,506.88Z"/><path class="cls-4" d="M700.73,416.16a37.56,37.56,0,0,0-1.52-7l-2.29-2.88-6-7.48h-.26c-.44,0-2.27.12-5.1.34h0c-1.75.14-3.89.32-6.32.55l-2,.2v10.44h12.5a2.51,2.51,0,0,1,2.48,2.18c0,.11,0,.21,0,.32a2.5,2.5,0,0,1-2.5,2.5h-72.6a32.41,32.41,0,0,0-2.66,2,14.88,14.88,0,0,0-5.25,7.86c-4.24,18.64-12,53.4-14.25,63.61a4.53,4.53,0,0,0,1.35,4.28,4.41,4.41,0,0,0,1.47.91l9,3.38a4.58,4.58,0,0,0,1.15.27h.14a1.31,1.31,0,0,0,.28,0,4.5,4.5,0,0,0,4.21-2.9l7.12-18.68,11-28.8L635,435.88c5,1.18,47.23,10.52,61.36-4.53a16.09,16.09,0,0,0,3.24-5.11A20.83,20.83,0,0,0,700.73,416.16Z"/><path class="cls-4" d="M713,418.88c-.22-.89-.47-1.81-.76-2.74L704,405.78h-.26c-.52,0-3,.16-6.78.47-4.3.36-10.31.94-17.06,1.85l-.61.08-2,.28v1.85h12.5a2.51,2.51,0,0,1,2.48,2.18c0,.11,0,.21,0,.32a2.5,2.5,0,0,1-2.5,2.5H645.57c-1.93.63-3.79,1.29-5.57,2-9.34,3.7-16.33,8.55-17.76,14.86l-1.57,6.93c-2.08,9.22-4.61,20.51-6.9,30.77h0c-.47,2.12-.94,4.18-1.39,6.18-1.91,8.6-3.53,15.89-4.39,19.72l-.06.32v0a4.69,4.69,0,0,0,.28,2.29h0a4.49,4.49,0,0,0,2.59,2.54l9,3.38a4.41,4.41,0,0,0,1.57.29,4.28,4.28,0,0,0,2.15-.55,4.44,4.44,0,0,0,2.06-2.35l19.42-51,3-7.91c5,1.18,47.23,10.51,61.36-4.53a16.85,16.85,0,0,0,4.48-11.07A29.75,29.75,0,0,0,713,418.88Z"/><path class="cls-5" d="M711.86,330.66c-.16-.19-.33-.38-.51-.56a24.49,24.49,0,0,0-21-7.39,79.61,79.61,0,0,0-9.91,2,25.12,25.12,0,0,0-11.18,6.27,24.42,24.42,0,0,0-7.41,18.2c0,1.37,0,2.77,0,4.19,0,.66,0,1.33,0,2h9.86a5.38,5.38,0,0,1,1.27.15,5.51,5.51,0,0,1,4.23,5.35v46.52l2,.58.61.19.68.21q3,.94,6,2h3.26a2.51,2.51,0,0,1,2.48,2.18l2,.81c2.31,1,4.5,1.92,6.51,2.85,2.71,1.24,5.12,2.42,7.14,3.45a4.46,4.46,0,0,0,2,.5,4.34,4.34,0,0,0,2.6-.86,4,4,0,0,0,.45-.37,4.48,4.48,0,0,0,1.37-4,128.59,128.59,0,0,1-.9-23.7c.28-6.65.88-13.47,1.66-20.06.42-3.57.89-7.07,1.38-10.44.47-3.22,1-6.31,1.46-9.23A24.62,24.62,0,0,0,711.86,330.66Z"/><path class="cls-5" d="M670.87,331.48a12.29,12.29,0,0,0-1.58-.55,11.51,11.51,0,0,0-13.54,6.53l-6.87,15.86-.86,2h23.73a5.38,5.38,0,0,1,1.27.15l.8-1.85,3-7A11.5,11.5,0,0,0,670.87,331.48Z"/><circle class="cls-3" cx="692.21" cy="290.34" r="24.56"/><path class="cls-3" d="M716.48,360.7l-14,.38-1,9.85-.23,2.28-22,9.86-2,.9V401.5l2-.57,6.32-1.8h0l27.84-7.93.32-.09a10.87,10.87,0,0,0,7.86-10.35l.07-11.63.06-8.57Z"/><path class="cls-5" d="M721,341.22a11.5,11.5,0,0,0-23,1.41h0l1.53,25a4.51,4.51,0,0,0,4.77,4.21l10.72-.66,3.25-.2a4.36,4.36,0,0,0,3.1-1.51,1.76,1.76,0,0,0,.24-.3,4.43,4.43,0,0,0,.88-3Z"/><path class="cls-2" d="M680.54,408.32h-1.29v-.13l-2,.28v1.85h9.24C684.55,409.62,682.57,409,680.54,408.32Zm0,0h-1.29v-.13l-2,.28v1.85h9.24C684.55,409.62,682.57,409,680.54,408.32Zm9.21,0h-10.5v-47.5a7.52,7.52,0,0,0-5.43-7.2,7.25,7.25,0,0,0-2.07-.3h-89a7.52,7.52,0,0,0-7.5,7.5v49a7.5,7.5,0,0,0,7.5,7.5h107a4.5,4.5,0,0,0,4.47-4,3.91,3.91,0,0,0,0-.49,4.51,4.51,0,0,0-4.5-4.5Zm2.5,4.5a2.5,2.5,0,0,1-2.5,2.5h-107a5.5,5.5,0,0,1-5.5-5.5v-49a5.51,5.51,0,0,1,5.5-5.5h89a5.38,5.38,0,0,1,1.27.15,5.51,5.51,0,0,1,4.23,5.35v49.5h12.5a2.51,2.51,0,0,1,2.48,2.18c0,.11,0,.21,0,.32Zm-11.71-4.5h-1.29v-.13l-2,.28v1.85h9.24C684.55,409.62,682.57,409,680.54,408.32Z"/><circle class="cls-5" cx="627.25" cy="385.32" r="6"/><path class="cls-4" d="M687,280.6c-5.7,5.1-13.35,10.57-20.34,6.83-4.58-2.45-6.63-7.82-5.55-12.91,1.92-9.16,9.83-14.1,17.49-18.1,10-5.2,21-9.73,32.11-8.38s22,10.57,21.52,21.79c-.43,9-7.8,17.44-5.46,26.17s13,12.18,22.09,12.63,19.07-.33,26.28,5.22c9.18,7.08,9,21.87,2.5,31.45s-17.59,15-28.44,19.06c-14.38,5.43-30.18,9.35-45,5.36s-27.83-18.23-25.65-33.44c.92-6.42,4.3-12.19,7.56-17.8s6.54-11.47,7.23-17.92c.57-5.38-1.14-11.32-5.11-14.78a4.44,4.44,0,0,1-1.25-5.07Z"/><path class="cls-2" d="M34.88,436.86v2a12.52,12.52,0,0,0,12.5,12.5h90a12.5,12.5,0,0,0,12.5-12.5v-2a12.39,12.39,0,0,0-2.9-8,13.33,13.33,0,0,0-2.11-2s-49.48-1.12-49.48-2.5h-48A12.52,12.52,0,0,0,34.88,436.86Z"/><rect class="cls-2" x="85.39" y="450.86" width="13" height="84"/><path class="cls-2" d="M48.39,534.41c0,1.4,19.69.54,44,.54s44,.86,44-.54-19.7-12.55-44-12.55S48.39,533,48.39,534.41Z"/><polygon class="cls-6" points="157.98 524.12 170.24 524.12 176.07 476.83 157.98 476.83 157.98 524.12"/><path class="cls-4" d="M193.88,535.5H155.35V520.62H179a14.88,14.88,0,0,1,14.88,14.88Z"/><polygon class="cls-6" points="177.12 517.28 188.81 513.61 180.22 466.74 162.96 472.16 177.12 517.28"/><path class="cls-4" d="M214.78,517.39,178,528.93h0l-4.46-14.21h0l22.56-7.08a14.89,14.89,0,0,1,18.66,9.75Z"/><path class="cls-4" d="M168.92,495.51l-22.43-58.87c-5,1.18-47.23,10.52-61.36-4.53-4.84-5.15-5.79-12.62-2.81-22.2l8.25-10.37.26,0c3.11.16,76.43,4.27,81.46,26.38,4.24,18.65,12,53.41,14.24,63.62a4.5,4.5,0,0,1-2.81,5.18l-9,3.38a4.41,4.41,0,0,1-1.57.29A4.5,4.5,0,0,1,168.92,495.51Z"/><path class="cls-4" d="M155.92,502.51l-22.43-58.87c-5,1.18-47.23,10.52-61.36-4.53-4.84-5.15-5.79-12.62-2.81-22.2l8.25-10.37.26,0c3.11.16,76.43,4.27,81.46,26.38,4.24,18.65,12,53.41,14.24,63.62a4.5,4.5,0,0,1-2.81,5.18l-9,3.38a4.41,4.41,0,0,1-1.57.29A4.5,4.5,0,0,1,155.92,502.51Z"/><path class="cls-6" d="M135.74,388.3a19.21,19.21,0,0,1-16.48-9.38l-7.12-12.06,16.93-9.25,7.18,9.85L185,362.32a8.93,8.93,0,0,1,.8-1.23h0a11,11,0,0,1,7.87-4.32,10.9,10.9,0,0,1,8.49,3A11,11,0,0,1,189,377.2a11.67,11.67,0,0,1-1-.7,9.17,9.17,0,0,1-.82-.7L140.4,387.71A18.78,18.78,0,0,1,135.74,388.3Z"/><path class="cls-7" d="M69,420a4.49,4.49,0,0,1-1.82-4.34c2.78-18.35-.42-44.62-3.6-63.44a24.81,24.81,0,0,1,27.56-28.76,79.64,79.64,0,0,1,9.91,2h0a24.59,24.59,0,0,1,18.59,24.46c-.48,18.16,3.21,40.81,4.81,49.7a4.52,4.52,0,0,1-.83,3.52,4.43,4.43,0,0,1-3.09,1.75c-17.81,1.81-37,10.5-46.88,15.51a4.43,4.43,0,0,1-2,.5A4.34,4.34,0,0,1,69,420Z"/><path class="cls-7" d="M117.08,372.7a4.44,4.44,0,0,1-2.48-2.39l-9.93-22.95a11.5,11.5,0,0,1,21.1-9.15v0l9.93,22.94a4.51,4.51,0,0,1-2.34,5.92l-12.85,5.56a4.42,4.42,0,0,1-3.44.05Z"/><circle class="cls-6" cx="89.32" cy="291.11" r="24.56"/><path class="cls-4" d="M74.48,312.93a4,4,0,0,1-5.61.4l-.08-.08A44.29,44.29,0,0,1,56.12,296.7c-3.19-7.61-3.66-16.89,0-24,3.07-6,8.59-9.87,14.09-13A23.12,23.12,0,0,1,77,256.77a9,9,0,0,1,7.16,1.41,7.52,7.52,0,0,1,2.87,7.22,22.41,22.41,0,0,1,9.81-7.35,11.33,11.33,0,0,1,7.55-.51c3.53,1.18,6.15,4.75,7.61,8.59a19,19,0,0,1,1.25,9.26,11.08,11.08,0,0,1-4.27,7.67c-2.88,2-6.59,1.79-10,.91s-6.61-2.37-10-2.79-7.19.49-9.23,3.53c-1.43,2.14-1.77,5-2.06,7.66l-1.52,14A18.64,18.64,0,0,1,75,312.21,3.08,3.08,0,0,1,74.48,312.93Z"/><path class="cls-7" d="M163.32,464.2H123.45a4.31,4.31,0,0,1-4.17-5.33,102.21,102.21,0,0,0,0-47.53,4.31,4.31,0,0,1,4.17-5.33h39.87a4.31,4.31,0,0,1,4.24,3.61,167.51,167.51,0,0,1,0,51A4.32,4.32,0,0,1,163.32,464.2Z"/><path class="cls-8" d="M132.72,427.69v-1.18a3,3,0,0,1,3-3h20.92a3,3,0,0,1,3,3v1.18a3,3,0,0,1-3,3H135.72A3,3,0,0,1,132.72,427.69Z"/><path class="cls-8" d="M132.72,440v-1.17a3,3,0,0,1,3-3h20.92a3,3,0,0,1,3,3V440a3,3,0,0,1-3,3H135.72A3,3,0,0,1,132.72,440Z"/><path class="cls-5" d="M145.58,391.94a4.38,4.38,0,0,1-.82-3.76,104.05,104.05,0,0,0,0-48.31,4.38,4.38,0,0,1,.82-3.76,4.33,4.33,0,0,1,3.41-1.66h40.53a4.38,4.38,0,0,1,4.3,3.67,169.82,169.82,0,0,1,0,51.81,4.38,4.38,0,0,1-4.3,3.67H149A4.33,4.33,0,0,1,145.58,391.94Z"/><path class="cls-8" d="M181.7,356.27H160.35a3,3,0,0,1-3-3V352a3,3,0,0,1,3-3H181.7a3,3,0,0,1,3,3v1.27A3,3,0,0,1,181.7,356.27Z"/><path class="cls-8" d="M181.7,368.82H160.35a3,3,0,0,1-3-3v-1.27a3,3,0,0,1,3-3H181.7a3,3,0,0,1,3,3v1.27A3,3,0,0,1,181.7,368.82Z"/><path class="cls-6" d="M127,413.94a11,11,0,0,1-6.53-6.16,8.8,8.8,0,0,1-.36-1L67.77,391.87a10.88,10.88,0,0,1-7.86-10.34l-.13-20.2,19.29.51L80.32,374l44.74,20.08a10.7,10.7,0,0,1,1.31-.66h0a11,11,0,1,1,.61,20.54Z"/><path class="cls-7" d="M60.08,370.2A4.49,4.49,0,0,1,59,366.94L60.49,342a11.5,11.5,0,1,1,23,1.37v0l-1.53,25a4.51,4.51,0,0,1-4.77,4.22l-14-.86a4.49,4.49,0,0,1-3.09-1.51Z"/><path class="cls-2" d="M285,236.17H203a9,9,0,0,1-9-9v-89a9,9,0,0,1,9-9h82a9,9,0,0,1,9,9v89A9,9,0,0,1,285,236.17Zm-82-105a7,7,0,0,0-7,7v89a7,7,0,0,0,7,7h82a7,7,0,0,0,7-7v-89a7,7,0,0,0-7-7Z"/><path class="cls-2" d="M435,236.17H353a9,9,0,0,1-9-9v-89a9,9,0,0,1,9-9h82a9,9,0,0,1,9,9v89A9,9,0,0,1,435,236.17Zm-82-105a7,7,0,0,0-7,7v89a7,7,0,0,0,7,7h82a7,7,0,0,0,7-7v-89a7,7,0,0,0-7-7Z"/><path class="cls-5" d="M219.49,166.17h-8a4.51,4.51,0,0,1-4.5-4.5v-8a4.49,4.49,0,0,1,4.5-4.5h8a4.51,4.51,0,0,1,4.5,4.5v8A4.52,4.52,0,0,1,219.49,166.17Z"/><path class="cls-7" d="M219.49,191.17h-8a4.51,4.51,0,0,1-4.5-4.5v-8a4.49,4.49,0,0,1,4.5-4.5h8a4.51,4.51,0,0,1,4.5,4.5v8A4.52,4.52,0,0,1,219.49,191.17Z"/><path class="cls-5" d="M278,161.3H240.61a3,3,0,0,1-3-3V157a3,3,0,0,1,3-3H278a3,3,0,0,1,3,3v1.27A3,3,0,0,1,278,161.3Z"/><path class="cls-7" d="M370.18,164.6h-8a4.5,4.5,0,0,1-4.5-4.5v-8a4.49,4.49,0,0,1,4.5-4.5h8a4.51,4.51,0,0,1,4.5,4.5v8A4.51,4.51,0,0,1,370.18,164.6Z"/><path class="cls-7" d="M428.65,159.73H391.3a3,3,0,0,1-3-3v-1.27a3,3,0,0,1,3-3h37.35a3,3,0,0,1,3,3v1.27A3,3,0,0,1,428.65,159.73Z"/><path class="cls-5" d="M428.65,183.73H359.3a3,3,0,0,1-3-3v-1.27a3,3,0,0,1,3-3h69.35a3,3,0,0,1,3,3v1.27A3,3,0,0,1,428.65,183.73Z"/><path class="cls-7" d="M428.65,200.73H359.3a3,3,0,0,1-3-3v-1.27a3,3,0,0,1,3-3h69.35a3,3,0,0,1,3,3v1.27A3,3,0,0,1,428.65,200.73Z"/><path class="cls-7" d="M428.65,217.73H359.3a3,3,0,0,1-3-3v-1.27a3,3,0,0,1,3-3h69.35a3,3,0,0,1,3,3v1.27A3,3,0,0,1,428.65,217.73Z"/><path class="cls-2" d="M585,236.17H503a9,9,0,0,1-9-9v-89a9,9,0,0,1,9-9h82a9,9,0,0,1,9,9v89A9,9,0,0,1,585,236.17Zm-82-105a7,7,0,0,0-7,7v89a7,7,0,0,0,7,7h82a7,7,0,0,0,7-7v-89a7,7,0,0,0-7-7Z"/><path class="cls-7" d="M578.65,159.73H541.3a3,3,0,0,1-3-3v-1.27a3,3,0,0,1,3-3h37.35a3,3,0,0,1,3,3v1.27A3,3,0,0,1,578.65,159.73Z"/><path class="cls-7" d="M578.65,183.73H509.3a3,3,0,0,1-3-3v-1.27a3,3,0,0,1,3-3h69.35a3,3,0,0,1,3,3v1.27A3,3,0,0,1,578.65,183.73Z"/><path class="cls-7" d="M578.65,200.73H509.3a3,3,0,0,1-3-3v-1.27a3,3,0,0,1,3-3h69.35a3,3,0,0,1,3,3v1.27A3,3,0,0,1,578.65,200.73Z"/><path class="cls-7" d="M578.65,217.73H509.3a3,3,0,0,1-3-3v-1.27a3,3,0,0,1,3-3h69.35a3,3,0,0,1,3,3v1.27A3,3,0,0,1,578.65,217.73Z"/><path class="cls-7" d="M278,186.3H240.61a3,3,0,0,1-3-3V182a3,3,0,0,1,3-3H278a3,3,0,0,1,3,3v1.27A3,3,0,0,1,278,186.3Z"/><path class="cls-7" d="M219.49,216.17h-8a4.51,4.51,0,0,1-4.5-4.5v-8a4.49,4.49,0,0,1,4.5-4.5h8a4.51,4.51,0,0,1,4.5,4.5v8A4.52,4.52,0,0,1,219.49,216.17Z"/><path class="cls-7" d="M278,211.3H240.61a3,3,0,0,1-3-3V207a3,3,0,0,1,3-3H278a3,3,0,0,1,3,3v1.27A3,3,0,0,1,278,211.3Z"/><path class="cls-5" d="M525,155.17v-.07a9,9,0,0,0-9-9h0v9.07Z"/><path class="cls-7" d="M515,156.17V147.1a9,9,0,1,0,9,9.07Z"/><rect class="cls-9" width="828.89" height="536.21"/></g></g></svg>