<svg xmlns="http://www.w3.org/2000/svg" viewBox="0 0 985.61 644.34"><defs><style>.cls-1{fill:#e6e6e6;}.cls-2{fill:#fff;}.cls-3{fill:#ccc;}.cls-4{fill:#3f3d56;}.cls-5{fill:#72c472;}.cls-6{fill:#a0616a;}.cls-7{fill:#2f2e41;}.cls-8{opacity:0.2;isolation:isolate;}.cls-9{fill:#ffb8b8;}.cls-10{fill:none;}</style></defs><g id="Lager_2" data-name="Lager 2"><g id="b2764883-148f-45a6-9ca9-ea478379e86a"><path class="cls-1" d="M826.45,370.4h-603a33,33,0,0,1-33-33v-193a33,33,0,0,1,33-33h603a33.05,33.05,0,0,1,33,33v193A33,33,0,0,1,826.45,370.4Z"/><path class="cls-2" d="M224.45,124.4a20,20,0,0,0-20,20v193a20,20,0,0,0,20,20h603a20,20,0,0,0,20-20v-193a20,20,0,0,0-20-20Z"/><path class="cls-3" d="M300.09,205.14A21.91,21.91,0,1,1,322,183.23h0A21.94,21.94,0,0,1,300.09,205.14Zm0-40.89a19,19,0,1,0,19,19h0A19,19,0,0,0,300.09,164.25Z"/><path class="cls-3" d="M299.6,178.26h0l-2.31,1.25-.35-1.37,2.91-1.55h1.53v13.29H299.6Z"/><path class="cls-1" d="M270.18,240.51a2.57,2.57,0,1,0-2.48-2.66V238A2.57,2.57,0,0,0,270.18,240.51Z"/><path class="cls-1" d="M270.18,256.57a2.57,2.57,0,1,0-2.48-2.66v.18A2.57,2.57,0,0,0,270.18,256.57Z"/><path class="cls-1" d="M270.18,272.64A2.57,2.57,0,1,0,267.7,270v.18A2.57,2.57,0,0,0,270.18,272.64Z"/><path class="cls-1" d="M331,239.4H284.28a1.46,1.46,0,1,1,0-2.92H331a1.46,1.46,0,1,1,0,2.92Z"/><path class="cls-1" d="M331,255.46H284.28a1.46,1.46,0,1,1,0-2.92H331a1.46,1.46,0,1,1,0,2.92Z"/><path class="cls-1" d="M331,271.53H284.28a1.46,1.46,0,1,1,0-2.92H331a1.46,1.46,0,1,1,0,2.92Z"/><path class="cls-3" d="M435.78,202.14a21.91,21.91,0,1,1,21.91-21.91,21.91,21.91,0,0,1-21.91,21.91Zm0-40.89a19,19,0,1,0,19,19h0a19,19,0,0,0-19-19Z"/><path class="cls-3" d="M431.91,187v-1.11l1.41-1.37c3.39-3.23,4.93-5,4.95-7a2.38,2.38,0,0,0-2.12-2.6,3,3,0,0,0-.52,0,4.52,4.52,0,0,0-2.82,1.12l-.58-1.27a5.88,5.88,0,0,1,3.77-1.35,3.75,3.75,0,0,1,4.06,3.4c0,.16,0,.31,0,.47,0,2.45-1.78,4.44-4.59,7.14l-1.06,1v0h6V187Z"/><path class="cls-2" d="M493.78,319.37h-116a9,9,0,0,1-9-9v-69a9,9,0,0,1,9-9h116a9,9,0,0,1,9,9v69A9,9,0,0,1,493.78,319.37Z"/><path class="cls-1" d="M475.21,251H396.35a1.46,1.46,0,0,1,0-2.92h78.87a1.46,1.46,0,0,1,0,2.92Z"/><path class="cls-1" d="M475.21,264.18H396.35a1.46,1.46,0,0,1,0-2.92h78.87a1.46,1.46,0,1,1,0,2.92Z"/><path class="cls-1" d="M475.21,277.33H396.35a1.46,1.46,0,0,1,0-2.92h78.87a1.46,1.46,0,0,1,0,2.92h0Z"/><path class="cls-1" d="M475.21,290.47H396.35a1.46,1.46,0,0,1,0-2.92h78.87a1.46,1.46,0,1,1,0,2.92Z"/><path class="cls-1" d="M475.21,303.62H396.35a1.46,1.46,0,1,1,0-2.92h78.86a1.46,1.46,0,0,1,0,2.92h0Z"/><path class="cls-1" d="M493.78,319.37h-116a9,9,0,0,1-9-9v-69a9,9,0,0,1,9-9h116a9,9,0,0,1,9,9v69A9,9,0,0,1,493.78,319.37Zm-116-85a7,7,0,0,0-7,7v69a7,7,0,0,0,7,7h116a7,7,0,0,0,7-7v-69a7,7,0,0,0-7-7Z"/><path class="cls-3" d="M582.55,202.14a21.91,21.91,0,1,1,21.91-21.91A21.9,21.9,0,0,1,582.55,202.14Zm0-40.89a19,19,0,1,0,19,19h0a19,19,0,0,0-19-19Z"/><path class="cls-3" d="M578.89,184.82a6.11,6.11,0,0,0,3,.84c2.31,0,3-1.48,3-2.58,0-1.86-1.7-2.66-3.43-2.66h-1v-1.35h1c1.31,0,3-.68,3-2.25,0-1.07-.67-2-2.33-2a5,5,0,0,0-2.66.88l-.47-1.31a6.32,6.32,0,0,1,3.48-1c2.62,0,3.8,1.55,3.8,3.17a3.29,3.29,0,0,1-2.45,3.13v0a3.46,3.46,0,0,1,3,3.42c0,2.13-1.65,4-4.84,4a6.85,6.85,0,0,1-3.46-.9Z"/><path class="cls-1" d="M550.18,300.09a2.57,2.57,0,1,0-2.48-2.65v.17A2.57,2.57,0,0,0,550.18,300.09Z"/><path class="cls-1" d="M611,299H564.28a1.47,1.47,0,0,1,0-2.93H611a1.47,1.47,0,1,1,0,2.93Z"/><path class="cls-1" d="M623.55,279.37h-82a7,7,0,0,1-7-7v-33a7,7,0,0,1,7-7h82a7,7,0,0,1,7,7v33A7,7,0,0,1,623.55,279.37Zm-82-45a5,5,0,0,0-5,5v33a5,5,0,0,0,5,5h82a5,5,0,0,0,5-5v-33a5,5,0,0,0-5-5Z"/><rect class="cls-1" x="532.74" y="254.94" width="99.76" height="2" transform="translate(-53.71 262.01) rotate(-24.26)"/><rect class="cls-1" x="581.74" y="205.93" width="2" height="99.51" transform="translate(107.32 678.69) rotate(-65.35)"/><path class="cls-3" d="M690.92,257.22a1,1,0,0,0-.21-.32h0l-11-11a1.46,1.46,0,0,0-2.07,2.06h0l8.46,8.46H648.79a1.46,1.46,0,1,0,0,2.92h37.36l-7.73,7.73a1.46,1.46,0,0,0,2.06,2.07h0L690.71,259h0A1.42,1.42,0,0,0,690.92,257.22Z"/><path class="cls-4" d="M784.19,228.51h-.68V209.76a10.86,10.86,0,0,0-10.86-10.85H732.93a10.85,10.85,0,0,0-10.85,10.85h0V312.62a10.86,10.86,0,0,0,10.85,10.86h39.72a10.86,10.86,0,0,0,10.86-10.86V241.86h.68Z"/><path class="cls-2" d="M781.2,209.84V312.55a8.1,8.1,0,0,1-8.11,8.1H733.18a8.1,8.1,0,0,1-8.11-8.1V209.84a8.11,8.11,0,0,1,8.11-8.11H738a3.85,3.85,0,0,0,2.12,5,3.78,3.78,0,0,0,1.44.29h22.76a3.85,3.85,0,0,0,3.85-3.86,4,4,0,0,0-.28-1.45h5.18A8.11,8.11,0,0,1,781.2,209.84Z"/><path class="cls-5" d="M258.05,328.5a4.38,4.38,0,0,1-.82-3.76,104.05,104.05,0,0,0,0-48.31,4.41,4.41,0,0,1,.82-3.77,4.35,4.35,0,0,1,3.41-1.65H302a4.39,4.39,0,0,1,4.31,3.67,170.45,170.45,0,0,1,0,51.81,4.37,4.37,0,0,1-4.31,3.66H261.46A4.29,4.29,0,0,1,258.05,328.5Z"/><path class="cls-2" d="M294.17,292.83H272.82a3,3,0,0,1-3-3v-1.27a3,3,0,0,1,3-3h21.35a3,3,0,0,1,3,3v1.27A3,3,0,0,1,294.17,292.83Z"/><path class="cls-2" d="M294.17,305.38H272.82a3,3,0,0,1-3-3v-1.27a3,3,0,0,1,3-3h21.35a3,3,0,0,1,3,3v1.27A3,3,0,0,1,294.17,305.38Z"/><path class="cls-5" d="M632.88,365.43a167.51,167.51,0,0,1,0-51,4.31,4.31,0,0,1,4.24-3.61H677a4.31,4.31,0,0,1,4.16,5.33,102.34,102.34,0,0,0,0,47.53A4.31,4.31,0,0,1,677,369H637.12A4.31,4.31,0,0,1,632.88,365.43Z"/><path class="cls-2" d="M665.45,336.76H644.52a3,3,0,0,1-3-3v-1.17a3,3,0,0,1,3-3h20.93a3,3,0,0,1,3,3v1.17A3,3,0,0,1,665.45,336.76Z"/><path class="cls-3" d="M53.9,476.44a167.54,167.54,0,0,1,31.44-40.12,4.3,4.3,0,0,1,5.56-.23l31.38,24.6a4.24,4.24,0,0,1,1.64,3.35,4.29,4.29,0,0,1-1.65,3.41A102.48,102.48,0,0,0,93,504.86,4.34,4.34,0,0,1,90,507.28a4.25,4.25,0,0,1-3.64-.79L55,481.89A4.28,4.28,0,0,1,53.9,476.44Z"/><path class="cls-2" d="M97.4,472.54l-16.46-12.9a3,3,0,0,1-.51-4.22l.72-.92a3,3,0,0,1,4.21-.51l16.47,12.91a3,3,0,0,1,.51,4.21l-.72.92A3,3,0,0,1,97.4,472.54Z"/><path class="cls-2" d="M89.79,482.26,73.32,469.35a3,3,0,0,1-.51-4.21l.72-.92a3,3,0,0,1,4.22-.51l16.46,12.9a3,3,0,0,1,.51,4.22l-.72.92A3,3,0,0,1,89.79,482.26Z"/><path class="cls-3" d="M901.88,489.43a167.51,167.51,0,0,1,0-51,4.31,4.31,0,0,1,4.24-3.61H946a4.31,4.31,0,0,1,4.16,5.33,102.21,102.21,0,0,0,0,47.53A4.31,4.31,0,0,1,946,493H906.12A4.31,4.31,0,0,1,901.88,489.43Z"/><path class="cls-2" d="M934.45,460.76H913.52a3,3,0,0,1-3-3v-1.17a3,3,0,0,1,3-3h20.93a3,3,0,0,1,3,3v1.17A3,3,0,0,1,934.45,460.76Z"/><path class="cls-6" d="M913.59,442.8a10.68,10.68,0,0,0-4.09-13.89,8.56,8.56,0,0,0-1.45-.65L907.23,392l-14.5,10.68,3,32.84a10.6,10.6,0,0,0,4.88,11.62,9.29,9.29,0,0,0,12.63-3.6C913.37,443.26,913.48,443,913.59,442.8Z"/><path class="cls-4" d="M907.48,426.68l-10.4.63a4.42,4.42,0,0,1-4.5-3.95L884,358.41,870,318.8a13.73,13.73,0,0,1,.36-10.14,12.32,12.32,0,0,1,7.06-6.74c6.35-2.31,13.31,1.34,15.5,8.15l14.19,45.42,4.37,66.33a4.69,4.69,0,0,1-1.05,3.33,4.19,4.19,0,0,1-1.81,1.29A3.74,3.74,0,0,1,907.48,426.68Z"/><polygon class="cls-6" points="846.87 626.3 834.61 626.3 828.78 579.01 846.87 579.01 846.87 626.3"/><path class="cls-7" d="M850,638.19H810.47v-.5a15.38,15.38,0,0,1,15.38-15.38H850Z"/><polygon class="cls-6" points="882.87 626.3 870.61 626.3 864.78 579.01 882.87 579.01 882.87 626.3"/><path class="cls-7" d="M886,638.19H846.47v-.5a15.38,15.38,0,0,1,15.38-15.38H886Z"/><path class="cls-7" d="M891.1,435.19l-2.93,173.7a4,4,0,0,1-4.07,3.93l-.29,0-14.35-1.3a4,4,0,0,1-3.62-3.67l-8.4-108.35a1,1,0,0,0-2,0l-4.2,110.83a4,4,0,0,1-4,3.84H831.86a4,4,0,0,1-4-3.75L817.1,434.19l64-16Z"/><circle class="cls-6" cx="844.68" cy="247.54" r="24.56"/><path class="cls-4" d="M814.91,440.36a4.5,4.5,0,0,1-1.37-3.16l-1.65-118.45a28.49,28.49,0,0,1,19.28-27.44c2.3-10.44,14.55-11.74,21.68-11.59a11.11,11.11,0,0,1,9,4.92l5.12,7.68,11.28,6.61a28.53,28.53,0,0,1,13.47,30.82l-1.74,7.9a181.63,181.63,0,0,0,1.7,84.66l3.5,13.32a4.51,4.51,0,0,1-3.21,5.5,4.68,4.68,0,0,1-1.49.13L886.4,441a4.49,4.49,0,0,1-4.13-4l-.67-6.72a.5.5,0,0,0-.55-.44.49.49,0,0,0-.45.44L880,436.7a4.51,4.51,0,0,1-4.41,4.05l-57.43.88H818A4.41,4.41,0,0,1,814.91,440.36Z"/><path class="cls-7" d="M846.6,261.69c.1,3.48,2.51,5.48,5.47,7.3s6.42,2.61,9.81,3.37a3,3,0,0,0,4-1.24,2.92,2.92,0,0,0,.35-1.38l3.11-11.83a74.22,74.22,0,0,0,2.39-11.53c.75-7.51-1-15.59-6.27-21s-14.33-7.36-20.61-3.17c-7.45-9.52-41.52,11.51-33.12,18.13,1.5,1.18,3.78-.31,5.68-.46s4,.19,5.23,1.66c1.57,1.93.89,4.79,1.54,7.19a6.71,6.71,0,0,0,8.43,4.37l.05,0a22.6,22.6,0,0,0,4.4-2.83c1.46-1,3.3-1.68,4.93-1.07,2.16.81,2.93,3.45,3.13,5.75A52,52,0,0,0,846.6,261.69Z"/><polygon class="cls-8" points="840.86 327.52 836.86 376.52 815.86 427.52 846.86 377.52 840.86 327.52"/><path class="cls-6" d="M811,446.51a10.05,10.05,0,0,0,1.55-14.13,9.94,9.94,0,0,0-1.23-1.28L824.65,398l-18.2,3.68-9.92,30.9a10.11,10.11,0,0,0,14.42,14Z"/><path class="cls-4" d="M810.56,431.9l-10.3-3.72a4.52,4.52,0,0,1-2.82-5.41l17-62.22L817,304.31a12.82,12.82,0,0,1,25.61,1.18c0,.13,0,.25,0,.37L838,367.44l-21.66,61.72a4.52,4.52,0,0,1-4.57,3A5,5,0,0,1,810.56,431.9Z"/><polygon class="cls-9" points="68.38 612.1 79.39 617.5 105.44 577.61 89.19 569.64 68.38 612.1"/><path class="cls-7" d="M67.33,607.13,89,617.76h0a15.39,15.39,0,0,1,7,20.59h0l-.22.45-35.5-17.4Z"/><polygon class="cls-9" points="177.47 630.91 189.73 630.91 195.56 583.62 177.47 583.62 177.47 630.91"/><path class="cls-7" d="M174.35,622.91h24.14a15.39,15.39,0,0,1,15.39,15.38h0v.5H174.35Z"/><circle class="cls-9" cx="151.14" cy="280" r="24.56"/><path class="cls-7" d="M175.6,615.31a4.49,4.49,0,0,1-4.49-4.3l-9.5-126.36a1.49,1.49,0,0,0-1.55-1.45,1.51,1.51,0,0,0-1.28.8L98.05,600a4.51,4.51,0,0,1-6,1.93l-16.93-8.46a4.51,4.51,0,0,1-2-6L109.34,514l24-55c9.27-18.25,19.11-27.65,30.08-28.75,11.26-1.12,23.28,6.62,36.76,23.67l.11.14v.18l-2,154.35a4.48,4.48,0,0,1-4.08,4.48L176,615.29A2.2,2.2,0,0,1,175.6,615.31Z"/><path class="cls-9" d="M125.22,467.85a10.75,10.75,0,0,0,3.5-14.79,11,11,0,0,0-1.13-1.51l3.7-97.86-18,2.24-1.52,95.2a10.8,10.8,0,0,0,13.45,16.72Z"/><path class="cls-7" d="M136.6,371l-24.17-2.75a4.81,4.81,0,0,1-4.24-5.33,5.58,5.58,0,0,1,.13-.69l6.24-23.44a13.38,13.38,0,0,1,26.58,3.1L142,366a4.82,4.82,0,0,1-4.65,5,4.22,4.22,0,0,1-.71,0Z"/><path class="cls-9" d="M240.73,309.39a11.38,11.38,0,0,0-.24,1.64l-43,24.78-10.44-6L176,344.37l17.45,12.44a8,8,0,0,0,9.6-.23l44.3-34.95a10.5,10.5,0,1,0-6.21-13.49,11.16,11.16,0,0,0-.37,1.25Z"/><path class="cls-7" d="M196.1,337l-13.89,18a4.49,4.49,0,0,1-6.31.81,4.06,4.06,0,0,1-.49-.44L159.69,339A12.5,12.5,0,0,1,175,319.29l19.71,11a4.51,4.51,0,0,1,1.73,6.13,6.49,6.49,0,0,1-.36.55Z"/><path class="cls-5" d="M207.42,461.53,180.77,331.7a24.34,24.34,0,0,0-27.85-19.11L144,314.07a23.8,23.8,0,0,0-15.48,9.66h0a33.27,33.27,0,0,0-5,28.31l14.71,52.65L127.37,461.1a4,4,0,0,0,4.49,4.72c5.46-.78,14.47-1.9,24.82-2.5l5.61-21.63L164.57,463c12.71-.35,26.51.27,37.9,3.23a4,4,0,0,0,4.9-2.84A3.9,3.9,0,0,0,207.42,461.53Z"/><path class="cls-7" d="M179.42,259.26c-1.46-8.53-8.31-15.59-16.46-18.49s-17.35-2-25.33,1.38a39.73,39.73,0,0,0-20,17.87,20.19,20.19,0,0,1-3-1.64c-4.73-3.15-8.56-7.63-13.68-10.09-9-4.35-19.92-1.46-28.7,3.36S55.74,263.12,46.47,266.9s-21.11,4-28.13-3.17A25.73,25.73,0,0,0,56.05,294.1c10.16-6.19,15.77-19.16,27.17-22.58,6.3-1.89,13.07-.37,19.45,1.28a75.68,75.68,0,0,0,11.46,2.37,28.28,28.28,0,0,0,7.39,18.89c7.86,8.28,20.21,10.48,31.62,10.35l.24-.24c-3.49-5.24-6.25-12.49-2.4-17.47s11.29-4.19,17.11-6.36C176.19,277.31,180.89,267.79,179.42,259.26Z"/><rect class="cls-10" width="985.61" height="644.34"/></g></g></svg>