<svg xmlns="http://www.w3.org/2000/svg" xmlns:xlink="http://www.w3.org/1999/xlink" viewBox="0 0 231.78 231.78"><defs><style>.cls-1{opacity:0.5;}.cls-2{fill:url(#Namnlös_övertoning_7);}.cls-3{fill:#f5f5f5;}.cls-4{fill:#fdd835;}.cls-5{fill:#72c472;}.cls-6{opacity:0.1;isolation:isolate;}.cls-7{fill:#fdb797;}</style><linearGradient id="Namnlös_övertoning_7" x1="115.89" y1="-496.52" x2="115.89" y2="-264.74" gradientTransform="matrix(1, 0, 0, -1, 0, -264.74)" gradientUnits="userSpaceOnUse"><stop offset="0" stop-color="gray" stop-opacity="0.25"/><stop offset="0.54" stop-color="gray" stop-opacity="0.12"/><stop offset="1" stop-color="gray" stop-opacity="0.1"/></linearGradient></defs><g id="Lager_2" data-name="Lager 2"><g id="_88ce59e9-c4b8-4d1d-9d7a-ce0190159aa8" data-name="88ce59e9-c4b8-4d1d-9d7a-ce0190159aa8"><g class="cls-1"><circle class="cls-2" cx="115.89" cy="115.89" r="115.89"/></g><circle class="cls-3" cx="115.89" cy="115.26" r="113.44"/><path class="cls-4" d="M178.64,125.46c0,41.78-27.26,88.29-60.89,88.29s-60.86-46.51-60.86-88.29,27.26-63,60.89-63S178.64,83.69,178.64,125.46Z"/><path class="cls-5" d="M116.21,229.05a112.84,112.84,0,0,0,62.36-18.66c-4.18-22.84-20.09-24.15-20.09-24.15H70.77s-15,1.23-19.7,22.25A112.91,112.91,0,0,0,116.21,229.05Z"/><path class="cls-6" d="M97.35,158.37h35.09v28.07A17.54,17.54,0,0,1,114.9,204h0a17.54,17.54,0,0,1-17.54-17.54V158.37Z"/><path class="cls-7" d="M100.7,157.07h28.39a3.35,3.35,0,0,1,3.35,3.35v24.72a17.54,17.54,0,0,1-17.54,17.54h0a17.54,17.54,0,0,1-17.54-17.54V160.42A3.35,3.35,0,0,1,100.7,157.07Z"/><path class="cls-6" d="M97.42,171.62a50.49,50.49,0,0,0,35.09.1v-4.31H97.42Z"/><circle class="cls-7" cx="115.02" cy="123.68" r="50.29"/><ellipse class="cls-7" cx="65.77" cy="121.53" rx="4.68" ry="8.77"/><ellipse class="cls-7" cx="164.01" cy="121.53" rx="4.68" ry="8.77"/><path class="cls-6" d="M70.46,96.4S98.89,135.31,164.09,122c0,0,7.28-8.86-10.44-36.06S86.59,63.19,70.46,96.4Z"/><path class="cls-4" d="M70.46,95.77s28.43,38.91,93.63,25.62c0,0,7.28-8.86-10.44-36.06S86.59,62.56,70.46,95.77Z"/></g></g></svg>