<svg xmlns="http://www.w3.org/2000/svg" viewBox="0 0 872.07 580.61"><defs><style>.cls-1{fill:#e6e6e6;}.cls-2{fill:#fff;}.cls-3{fill:#3f3d56;}.cls-4{fill:#72c472;}.cls-5{fill:#ffb9b9;}.cls-6{fill:#2f2e41;}.cls-7{fill:none;}</style></defs><g id="Lager_2" data-name="Lager 2"><g id="fbe6a470-e545-4a3c-ab88-8fc38f19e601"><path class="cls-1" d="M832.88,435.79H192.29a9.93,9.93,0,0,1-9.91-9.91V73.43a9.93,9.93,0,0,1,9.91-9.91H832.88a9.93,9.93,0,0,1,9.91,9.91V425.88A9.93,9.93,0,0,1,832.88,435.79Z"/><path class="cls-2" d="M819.37,422.27H205.81a9.9,9.9,0,0,1-9.91-9.91V86.94A9.91,9.91,0,0,1,205.81,77H819.37a9.93,9.93,0,0,1,9.91,9.91V412.36A9.92,9.92,0,0,1,819.37,422.27Z"/><path class="cls-3" d="M377.49,277.82H262.06a4.82,4.82,0,0,1-4.81-4.81V152.8a4.82,4.82,0,0,1,4.81-4.81H377.49a4.81,4.81,0,0,1,4.81,4.81V273A4.81,4.81,0,0,1,377.49,277.82ZM262.06,149.91a2.88,2.88,0,0,0-2.88,2.89V273a2.88,2.88,0,0,0,2.88,2.89H377.49a2.89,2.89,0,0,0,2.89-2.89V152.8a2.89,2.89,0,0,0-2.89-2.89Z"/><path class="cls-3" d="M570.3,277.82H454.87a4.81,4.81,0,0,1-4.81-4.81V152.8a4.81,4.81,0,0,1,4.81-4.81H570.3a4.81,4.81,0,0,1,4.81,4.81V273A4.81,4.81,0,0,1,570.3,277.82ZM454.87,149.91A2.9,2.9,0,0,0,452,152.8V273a2.9,2.9,0,0,0,2.89,2.89H570.3a2.89,2.89,0,0,0,2.89-2.89V152.8a2.89,2.89,0,0,0-2.89-2.89Z"/><path class="cls-3" d="M763.11,277.82H647.68a4.81,4.81,0,0,1-4.81-4.81V152.8a4.81,4.81,0,0,1,4.81-4.81H763.11a4.81,4.81,0,0,1,4.81,4.81V273A4.81,4.81,0,0,1,763.11,277.82ZM647.68,149.91a2.89,2.89,0,0,0-2.89,2.89V273a2.89,2.89,0,0,0,2.89,2.89H763.11A2.88,2.88,0,0,0,766,273V152.8a2.88,2.88,0,0,0-2.88-2.89Z"/><path class="cls-1" d="M297.49,351.32a3.27,3.27,0,0,0,0-6.53h-29.3a3.27,3.27,0,1,0,0,6.53h29.3Z"/><path class="cls-1" d="M371.37,332.08a3.27,3.27,0,0,0,0-6.53H268.19a3.27,3.27,0,0,0,0,6.53Z"/><path class="cls-1" d="M490.3,351.32a3.27,3.27,0,0,0,0-6.53H461a3.27,3.27,0,1,0,0,6.53Z"/><path class="cls-1" d="M564.18,332.08a3.27,3.27,0,0,0,0-6.53H461a3.27,3.27,0,0,0,0,6.53Z"/><path class="cls-1" d="M683.1,351.32a3.27,3.27,0,1,0,0-6.53H653.8a3.27,3.27,0,0,0,0,6.53h29.3Z"/><path class="cls-1" d="M757,332.08a3.27,3.27,0,0,0,0-6.53H653.8a3.27,3.27,0,1,0,0,6.53H757Z"/><path class="cls-4" d="M371.37,313.16a3.27,3.27,0,0,0,0-6.53H268.19a3.27,3.27,0,1,0,0,6.53H371.37Z"/><path class="cls-4" d="M564.18,313.16a3.27,3.27,0,0,0,0-6.53H461a3.27,3.27,0,1,0,0,6.53Z"/><path class="cls-4" d="M757,313.16a3.27,3.27,0,1,0,0-6.53H653.8a3.27,3.27,0,0,0,0,6.53H757Z"/><path class="cls-1" d="M352.9,254.53a3.27,3.27,0,0,0,0-6.54H286.66a3.27,3.27,0,0,0,0,6.54H352.9Z"/><path class="cls-1" d="M352.9,235.29a3.27,3.27,0,0,0,0-6.53H286.66a3.27,3.27,0,1,0,0,6.53H352.9Z"/><circle class="cls-4" cx="319.78" cy="192.01" r="20.72"/><path class="cls-1" d="M545.71,254.53a3.27,3.27,0,0,0,0-6.54H479.47a3.27,3.27,0,0,0,0,6.54Z"/><path class="cls-1" d="M545.71,235.29a3.27,3.27,0,0,0,0-6.53H479.47a3.27,3.27,0,0,0,0,6.53Z"/><circle class="cls-4" cx="512.59" cy="192.01" r="20.72"/><path class="cls-1" d="M738.51,254.53a3.27,3.27,0,0,0,0-6.54H672.27a3.27,3.27,0,0,0,0,6.54Z"/><path class="cls-1" d="M738.51,235.29a3.27,3.27,0,0,0,0-6.53H672.27a3.27,3.27,0,0,0,0,6.53Z"/><circle class="cls-4" cx="705.39" cy="192.01" r="20.72"/><polygon class="cls-5" points="124.71 490.33 135.81 496.38 128.75 519.6 117.64 520.61 111.59 507.49 124.71 490.33"/><polygon class="cls-5" points="90.39 536.75 90.39 547.85 73.24 546.85 73.48 537.7 90.39 536.75"/><polygon class="cls-6" points="128.75 357.11 122.69 432.8 103.51 543.82 73.24 539.78 83.33 451.98 79.29 371.24 128.75 357.11"/><path class="cls-6" d="M48,300.59l72.66,1,8.07,55.51L79.29,380.32,67.18,424.73l61.56,65.6L104.52,520.6S70.21,474.18,45,447.94,31.86,342,31.86,342Z"/><circle class="cls-5" cx="91.4" cy="135.07" r="22.2"/><path class="cls-5" d="M99.48,150.21v22.21L84.34,196.64s-23.21-17.16-18.17-21.2,6.06-35.32,6.06-35.32Z"/><polygon class="cls-2" points="99.48 168.38 114.62 186.54 108.56 312.7 61.13 311.69 53.05 201.68 63.14 173.43 70.07 164.01 82.32 182.51 99.48 168.38"/><path class="cls-6" d="M123.7,234l11.1,42.39-11.1,42.39L141.86,343,158,266.27s-12.11-62.57-13.12-69.63-3-8.08-3-8.08l-8.07,1Z"/><polygon class="cls-6" points="42.96 250.13 35.9 263.25 33.88 285.45 37.91 310.68 23.78 333.89 9.65 270.31 24.79 188.56 30.85 188.56 42.96 250.13"/><path class="cls-6" d="M128.74,489.32s14.13,4,19.18,5-3,20.19-3,20.19-5,26.24-6,31.29-8.08,22.2-17.16,24.22-3-35.33-3-35.33-4-12.11-4-16.14,6-2,6-2C136.82,514.55,128.74,489.32,128.74,489.32Z"/><path class="cls-6" d="M95.44,567c-1,6.06,1,6.06-15.14,8.07S68.19,564,68.19,564a84.87,84.87,0,0,1,4-18.16c3-8.08,19.17,2,19.17,2S96.45,561,95.44,567Z"/><path class="cls-6" d="M72.2,140.82l-.53,9s-6.51-14.73-7.52-29.87,16.15-18.16,26.24-19.17,27.25,6,27.25,14.13-18.16,6-25.23,4-10.09,15.13-10.09,15.13l-4,1Z"/><polygon class="cls-2" points="105.43 175.53 99.48 168.38 82.32 182.51 99.48 194.62 105.43 175.53"/><polygon class="cls-2" points="63.14 173.43 70.21 164.34 82.32 182.51 67.18 193.61 63.14 173.43"/><path class="cls-6" d="M126.73,248.11l-4,38.35,8.07,23.21,5.05,22.21s0,21.19-20.19,22.2S78.28,290.5,78.28,290.5s-3,14.13-5,22.2S36.9,353.07,36.9,353.07s-8.07-1-15.14-17.16,14.13-31.28,14.13-31.28L42,283.43l-2-26.24L25.8,188.56l41.89-21.7-4.55,58,15.14,45.41L101,169.89l7.57,5.55,32.3,13.12Z"/><rect class="cls-7" width="872.07" height="580.61"/></g></g></svg>