<svg xmlns="http://www.w3.org/2000/svg" viewBox="0 0 822.39 597.97"><defs><style>.cls-1{fill:#cbcbcb;}.cls-2{fill:#72c472;}.cls-3{fill:#3f3d56;}.cls-4{fill:#ffb7b7;}.cls-5{fill:#2f2e41;}.cls-6{fill:none;}</style></defs><g id="Lager_2" data-name="Lager 2"><g id="b03325a2-9f0d-4349-a23d-136e09983e20"><rect class="cls-1" x="259.72" y="109.68" width="450.81" height="2"/><rect class="cls-1" x="320.13" y="110.43" width="2" height="63.56"/><polygon class="cls-1" points="486.15 224.38 383.1 224.38 383.1 110.37 385.1 110.37 385.1 222.38 486.15 222.38 486.15 224.38"/><rect class="cls-1" x="450.83" y="110.43" width="2" height="63.56"/><rect class="cls-1" x="484.39" y="223.43" width="2" height="63.56"/><rect class="cls-1" x="587.95" y="110.43" width="2" height="63.56"/><rect class="cls-1" x="656.5" y="110.43" width="2" height="63.56"/><rect class="cls-2" x="302.38" y="183.72" width="37.98" height="14.8"/><rect class="cls-3" x="432.38" y="183.72" width="37.98" height="14.8"/><rect class="cls-1" x="570.38" y="183.72" width="37.98" height="14.8"/><rect class="cls-2" x="636.38" y="183.72" width="37.98" height="14.8"/><rect class="cls-3" x="725.38" y="103.72" width="37.98" height="14.8"/><rect class="cls-3" x="466.38" y="295.72" width="37.98" height="14.8"/><rect class="cls-2" x="185.93" y="98.26" width="60.88" height="23.72"/><polygon class="cls-4" points="134.29 315.2 138.27 351.08 189.07 351.95 182.94 309.04 134.29 315.2"/><path class="cls-4" d="M111.4,395a8.21,8.21,0,0,0-1-11.57,8.75,8.75,0,0,0-1.19-.83L111.53,364l-11-4.19-3,26.34A8.26,8.26,0,0,0,111.4,395Z"/><polygon class="cls-4" points="203.79 581.49 214.53 581.49 219.63 540.07 203.79 540.07 203.79 581.49"/><path class="cls-5" d="M201.05,578H222.2a13.47,13.47,0,0,1,13.47,13.47v.44H201.05Z"/><polygon class="cls-4" points="81.17 581.49 91.9 581.49 97.01 540.07 81.16 540.07 81.17 581.49"/><path class="cls-5" d="M78.43,578H99.57a13.47,13.47,0,0,1,13.48,13.47v.44H78.43Z"/><path class="cls-2" d="M96.62,380.46l4.73-54.64,13.77-49.9a18.85,18.85,0,0,1,16.28-13.66l.44,0,2.45,37.45-17.62,36.21-5.82,43.43Z"/><path class="cls-5" d="M137.46,330.2l-7.23,13S102,371.74,99.85,415.79L73.66,565.73l24.28-.6L147.08,424.6l34.75,59.63,17.38,77.91,27.57-5.1L214.5,466.55l-23.68-84.2-2.39-45.84Z"/><circle class="cls-4" cx="162.53" cy="222.63" r="21.51"/><path class="cls-5" d="M77.62,271.49c4-7.81,5.36-16.67,8.43-24.89s8.67-16.36,17.14-18.62c4.81-1.29,9.91-.5,14.85-1.12,4.34-.53,9-2.75,10.68-6.6a27.08,27.08,0,0,1,1.4-11.3c3.1-8.8,10.48-15.75,19.09-19.34,7-2.91,15-3.74,22.19-1.2s13.14,8.72,14.42,16.19-2.83,15.8-9.93,18.46c-5.1,1.9-11.66,1.27-15,5.57s-1,10.72,2.11,15.3l-.21.21c-10,.12-20.81-1.81-27.7-9.06a22.85,22.85,0,0,1-2.06-2.54q-.31.51-.66,1c-3.47,4.6-8.9,7.22-14.08,9.76s-10.54,5.41-13.64,10.26c-5.62,8.78-1.93,20.6-5.14,30.51a22.54,22.54,0,0,1-42.39,1.38C65.87,286.18,73.62,279.29,77.62,271.49Z"/><path class="cls-4" d="M215.37,394.28a8.21,8.21,0,0,0-6.27-9.77,7.67,7.67,0,0,0-1.44-.18l-6.52-17.6-11.66,1.35L199,392.81a8.26,8.26,0,0,0,16.33,1.47Z"/><path class="cls-2" d="M134.06,335.5l-6.22-29.95-2-22.82a53.7,53.7,0,0,1,10.18-36.31l2-2.72,33.5,11.91,16.34,21.53c10,10,2.16,19.62,1.07,20.85l-.33,30.26-.38.06Z"/><path class="cls-2" d="M195.75,388,170.84,330.6,167.22,278,166.49,267a10.56,10.56,0,0,1,21-2.1l7.85,58.64L208.85,382Z"/><rect class="cls-6" width="822.39" height="597.97"/></g></g></svg>