<svg xmlns="http://www.w3.org/2000/svg" xmlns:xlink="http://www.w3.org/1999/xlink" viewBox="0 0 231.78 231.78"><defs><style>.cls-1{opacity:0.5;}.cls-2{fill:url(#Namnlös_övertoning_8);}.cls-3{fill:#f5f5f5;}.cls-4{fill:#333;}.cls-5{fill:#72c472;}.cls-6{opacity:0.1;isolation:isolate;}.cls-7{fill:#fda57d;}</style><linearGradient id="Namnlös_övertoning_8" x1="115.89" y1="-523.1" x2="115.89" y2="-291.32" gradientTransform="matrix(1, 0, 0, -1, 0, -291.32)" gradientUnits="userSpaceOnUse"><stop offset="0" stop-color="gray" stop-opacity="0.25"/><stop offset="0.54" stop-color="gray" stop-opacity="0.12"/><stop offset="1" stop-color="gray" stop-opacity="0.1"/></linearGradient></defs><g id="Lager_2" data-name="Lager 2"><g id="_88ce59e9-c4b8-4d1d-9d7a-ce0190159aa8" data-name="88ce59e9-c4b8-4d1d-9d7a-ce0190159aa8"><g class="cls-1"><circle class="cls-2" cx="115.89" cy="115.89" r="115.89"/></g><circle class="cls-3" cx="116.12" cy="115.15" r="113.44"/><path class="cls-4" d="M178.53,126.33c0,37.74-27.11,56.31-62.32,56.31s-65.16-18.57-65.16-56.31S79.59,58,114.79,58,178.53,88.56,178.53,126.33Z"/><path class="cls-5" d="M116.21,229a112.9,112.9,0,0,0,62.37-18.66c-4.18-22.84-20.09-24.15-20.09-24.15H70.77s-15,1.23-19.7,22.25A112.91,112.91,0,0,0,116.21,229Z"/><path class="cls-6" d="M97.35,158.34h35.09v28.07A17.54,17.54,0,0,1,114.93,204h-.07a17.54,17.54,0,0,1-17.54-17.54v-28.1Z"/><path class="cls-7" d="M100.69,157.07h28.39a3.35,3.35,0,0,1,3.35,3.35v24.72a17.54,17.54,0,0,1-17.54,17.54h0a17.54,17.54,0,0,1-17.54-17.54V160.41a3.35,3.35,0,0,1,3.35-3.35Z"/><path class="cls-6" d="M97.42,171.62a50.49,50.49,0,0,0,35.09.1v-4.31H97.42Z"/><circle class="cls-7" cx="115.02" cy="123.67" r="50.29"/><path class="cls-6" d="M57.06,127s31.32-3.8,55-34.16c0,0,31.32,34.48,53.14,30.68,0,0,12.65-13.29,0-26.57s-22.46-30-39.22-27.84S88.65,72.23,79.8,80.14,57.06,127,57.06,127Z"/><path class="cls-4" d="M57.06,126.33s31.32-3.8,55-34.16c0,0,31.32,34.48,53.14,30.68,0,0,12.65-13.29,0-26.57s-22.46-30-39.22-27.84S88.69,71.56,79.84,79.56,57.06,126.33,57.06,126.33Z"/><ellipse class="cls-7" cx="64.71" cy="123.63" rx="4.68" ry="8.77"/><ellipse class="cls-7" cx="165.3" cy="123.63" rx="4.68" ry="8.77"/></g></g></svg>